<svg width="47" height="48" viewBox="0 0 47 48" fill="none" xmlns="http://www.w3.org/2000/svg">
<path id="Vector" fill-rule="evenodd" clip-rule="evenodd" d="M23.3615 0.901511C18.4775 1.01066 13.7552 2.70542 9.8822 5.73902C0.725863 12.8954 -1.80695 25.8743 3.96352 36.0561C4.01499 36.1563 4.08584 36.245 4.1718 36.3166C4.25776 36.3882 4.35706 36.4414 4.46371 36.4729C4.57037 36.5045 4.68218 36.5137 4.79242 36.5C4.90266 36.4864 5.00906 36.4502 5.1052 36.3935C5.20135 36.3369 5.28526 36.2611 5.35189 36.1705C5.41851 36.08 5.46648 35.9767 5.4929 35.8668C5.51932 35.7569 5.52365 35.6427 5.50563 35.531C5.4876 35.4194 5.4476 35.3126 5.38802 35.2171C2.79542 30.6448 1.92353 25.2678 2.93497 20.0888C3.94641 14.9098 6.77212 10.2824 10.8851 7.06963C14.7108 4.07612 19.4189 2.49132 24.2419 2.57359C29.0649 2.65587 33.7183 4.40036 37.4435 7.52267H36.2791C36.0608 7.52267 35.8513 7.61106 35.6969 7.7684C35.5425 7.92574 35.4557 8.13913 35.4557 8.36164C35.4557 8.58415 35.5425 8.79755 35.6969 8.95488C35.8513 9.11222 36.0608 9.20061 36.2791 9.20061H39.5382C39.656 9.20672 39.7738 9.18695 39.8834 9.14266C39.9931 9.09837 40.0922 9.03058 40.1739 8.94389C40.1923 8.92626 40.2099 8.90779 40.2266 8.88852C40.2796 8.82009 40.3218 8.74367 40.3517 8.66199C40.361 8.63834 40.3693 8.61426 40.3764 8.58984C40.3765 8.5876 40.3765 8.58537 40.3764 8.58313C40.3831 8.55823 40.3886 8.53304 40.3929 8.50762C40.4015 8.45945 40.4059 8.4106 40.4061 8.36164V4.99737C40.4079 4.88493 40.3874 4.77327 40.346 4.66904C40.3046 4.5648 40.2431 4.47011 40.165 4.39059C40.087 4.31108 39.994 4.24836 39.8917 4.20616C39.7894 4.16397 39.6799 4.14316 39.5695 4.14497C39.4614 4.14672 39.3546 4.17016 39.2554 4.21394C39.1561 4.25773 39.0663 4.32101 38.9911 4.40016C38.9158 4.47932 38.8566 4.5728 38.8169 4.67527C38.7771 4.77774 38.7575 4.88719 38.7593 4.99737V6.46221C34.4693 2.74795 28.9896 0.769017 23.3615 0.901511ZM23.9378 10.6269C20.0349 10.6269 16.8647 13.8418 16.8647 17.8085V19.8555H14.1178C13.8995 19.8555 13.69 19.9439 13.5356 20.1013C13.3812 20.2586 13.2944 20.472 13.2944 20.6945V37.3061C13.2944 37.5287 13.3812 37.742 13.5356 37.8994C13.69 38.0567 13.8995 38.1451 14.1178 38.1451H33.7579C33.9762 38.1451 34.1857 38.0567 34.3401 37.8994C34.4945 37.742 34.5813 37.5287 34.5813 37.3061V20.6945C34.5813 20.472 34.4945 20.2586 34.3401 20.1013C34.1857 19.9439 33.9762 19.8555 33.7579 19.8555H31.011V17.8085C31.011 13.8418 27.8408 10.6269 23.9378 10.6269ZM43.1727 12.2679C43.0261 12.2697 42.8826 12.3114 42.7571 12.3886C42.6316 12.4659 42.5286 12.5758 42.4588 12.7072C42.3889 12.8386 42.3548 12.9866 42.3599 13.1359C42.3649 13.2852 42.4091 13.4304 42.4877 13.5566C45.0803 18.1289 45.9522 23.5059 44.9407 28.6849C43.9293 33.8639 41.1036 38.4913 36.9906 41.704C33.165 44.6964 28.4577 46.2805 23.6355 46.1983C18.8133 46.116 14.1606 44.3722 10.4355 41.251H11.5603C11.7787 41.251 11.9881 41.1626 12.1426 41.0053C12.297 40.8479 12.3837 40.6345 12.3837 40.412C12.3837 40.1895 12.297 39.9761 12.1426 39.8188C11.9881 39.6614 11.7787 39.573 11.5603 39.573H8.39677C8.2967 39.5599 8.1951 39.5656 8.09705 39.5898C7.91106 39.6285 7.7439 39.7315 7.62386 39.8813C7.50383 40.0311 7.43828 40.2186 7.43832 40.412V43.7763C7.43832 43.9988 7.52507 44.2122 7.67949 44.3695C7.83391 44.5269 8.04335 44.6153 8.26173 44.6153C8.48011 44.6153 8.68955 44.5269 8.84397 44.3695C8.99839 44.2122 9.08514 43.9988 9.08514 43.7763V42.2812C12.8484 45.5522 17.5478 47.4972 22.4837 47.8268C28.0535 48.2039 33.5673 46.5002 37.9935 43.0346C47.1498 35.8782 49.6826 22.8993 43.9122 12.7176C43.8415 12.5801 43.7349 12.4653 43.604 12.386C43.4732 12.3066 43.325 12.2657 43.1727 12.2679ZM23.9378 12.3065C24.6499 12.3007 25.3561 12.4389 26.0154 12.7132C26.6747 12.9874 27.274 13.3922 27.7787 13.904C28.2834 14.4159 28.6834 15.0247 28.9555 15.6952C29.2277 16.3657 29.3666 17.0846 29.3641 17.8101V19.8572H18.5116V17.8101C18.5116 14.7462 20.9159 12.3065 23.9378 12.3065ZM14.9412 21.5352H32.9344V36.4689H14.9412V21.5352ZM23.9378 24.5437C22.4112 24.5437 21.1498 25.8139 21.1498 27.3677C21.1498 28.6295 21.9847 29.6916 23.1144 30.0524V34.3261H24.7613V30.0524C25.3263 29.8758 25.8214 29.5204 26.1747 29.0376C26.528 28.5548 26.7211 27.9699 26.7259 27.3677C26.7259 25.8139 25.4645 24.5437 23.9378 24.5437ZM23.9378 26.2217C24.5801 26.2217 25.0791 26.7267 25.0791 27.3677C25.0798 27.52 25.0506 27.671 24.9934 27.8117C24.9361 27.9525 24.8519 28.0801 24.7456 28.1873C24.6394 28.2945 24.5132 28.379 24.3745 28.4359C24.2358 28.4928 24.0874 28.521 23.9378 28.5188C23.7883 28.521 23.6399 28.4928 23.5012 28.4359C23.3625 28.379 23.2363 28.2945 23.1301 28.1873C23.0238 28.0801 22.9396 27.9525 22.8823 27.8117C22.8251 27.671 22.7959 27.52 22.7966 27.3677C22.7966 26.7267 23.2956 26.2217 23.9378 26.2217Z" fill="#7E4FFF"/>
</svg>
