<svg width="47" height="48" viewBox="0 0 47 48" fill="none" xmlns="http://www.w3.org/2000/svg">
<g id="Sound">
<path id="Vector" d="M24.6584 44.5096H22.9695C21.8311 44.5096 20.7186 44.0398 19.9116 43.2205L12.9543 36.1319C12.6847 35.8564 12.3188 35.7011 11.937 35.7003H7.366C4.98254 35.7003 3.04291 33.724 3.04291 31.2956V16.6134C3.04291 14.185 4.98254 12.2087 7.366 12.2087H11.937C12.3191 12.2082 12.6857 12.0541 12.9572 11.78L19.9145 4.69145C20.7186 3.86924 21.834 3.39941 22.9695 3.39941H24.6584C27.0418 3.39941 28.9815 5.37564 28.9815 7.80408V40.1049C28.9815 42.5334 27.0418 44.5096 24.6584 44.5096ZM7.366 15.1452C6.98382 15.1452 6.61728 15.2999 6.34704 15.5752C6.07679 15.8506 5.92497 16.224 5.92497 16.6134V31.2956C5.92497 32.1031 6.57343 32.7638 7.366 32.7638H11.937C13.0754 32.7638 14.1878 33.2337 14.9948 34.0529L21.9521 41.1415C22.2217 41.417 22.5876 41.5723 22.9695 41.5731H24.6584C25.4509 41.5731 26.0994 40.9124 26.0994 40.1049V7.80408C26.0994 7.41468 25.9476 7.04123 25.6773 6.76589C25.4071 6.49054 25.0406 6.33585 24.6584 6.33585H22.9695C22.588 6.33594 22.2222 6.49011 21.9521 6.76457L14.9919 13.8561C14.1797 14.6786 13.0821 15.1417 11.937 15.1452H7.366ZM33.3046 31.88C33.015 31.8788 32.7324 31.7889 32.4936 31.622C32.2548 31.455 32.0708 31.2188 31.9655 30.944C31.8601 30.6692 31.8383 30.3684 31.9029 30.0808C31.9674 29.7932 32.1154 29.532 32.3275 29.3311C33.0647 28.6509 33.6538 27.8209 34.057 26.8947C34.4602 25.9684 34.6685 24.9663 34.6685 23.953C34.6685 22.9397 34.4602 21.9377 34.057 21.0114C33.6538 20.0851 33.0647 19.2551 32.3275 18.5749C32.0463 18.3109 31.8794 17.9439 31.8637 17.5545C31.8481 17.1652 31.9848 16.7855 32.244 16.4989C32.5031 16.2123 32.8633 16.0423 33.2455 16.0263C33.6276 16.0104 34.0003 16.1497 34.2816 16.4137C36.3884 18.3958 37.5527 21.0739 37.5527 23.9545C37.5527 26.8351 36.3912 29.5132 34.2816 31.4923C34.0151 31.7417 33.6664 31.88 33.3046 31.88Z" fill="#FBAE14"/>
<path id="Vector_2" d="M33.3045 38.8216C32.9742 38.8217 32.6539 38.7062 32.3972 38.4943C32.1405 38.2825 31.963 37.9873 31.8945 37.658C31.8259 37.3288 31.8705 36.9856 32.0207 36.6858C32.1709 36.3861 32.4176 36.148 32.7195 36.0114C37.4057 33.8884 40.4348 29.1548 40.4348 23.9544C40.4348 18.754 37.4057 14.0204 32.7195 11.8974C32.5465 11.8191 32.3904 11.7069 32.26 11.5671C32.1296 11.4274 32.0275 11.2628 31.9595 11.0828C31.8915 10.9029 31.859 10.711 31.8638 10.5182C31.8686 10.3255 31.9106 10.1356 31.9874 9.95933C32.0643 9.7831 32.1744 9.62402 32.3116 9.49116C32.4488 9.3583 32.6103 9.25428 32.7869 9.18502C32.9635 9.11576 33.1518 9.08262 33.341 9.08751C33.5302 9.09239 33.7166 9.13519 33.8896 9.21347C39.6134 11.8064 43.3168 17.5941 43.3168 23.9544C43.3168 30.3147 39.6163 36.1025 33.8896 38.6983C33.7051 38.7803 33.5059 38.8223 33.3045 38.8216Z" fill="#FBAE14"/>
</g>
</svg>
