<svg width="47" height="48" viewBox="0 0 47 48" fill="none" xmlns="http://www.w3.org/2000/svg">
<path id="Vector" d="M30.0377 0.542447C29.798 0.545944 29.5691 0.644409 29.3995 0.816995L21.125 9.2512C20.1121 7.71886 18.7456 6.46347 17.1456 5.59553C15.5455 4.7276 13.7609 4.27373 11.9485 4.27352C5.8468 4.27352 0.881348 9.33587 0.881348 15.5566C0.881348 18.8851 2.3127 21.8751 4.57039 23.9437V43.7644C4.57039 45.8329 6.23046 47.5254 8.25943 47.5254H43.3053C45.3343 47.5254 46.9943 45.8329 46.9943 43.7644V19.3177C46.9943 17.2491 45.3343 15.5566 43.3053 15.5566L37.9119 5.18555C37.8325 5.0325 37.7131 4.90469 37.5669 4.81642C37.4208 4.72816 37.2536 4.68288 37.0837 4.68535C36.9375 4.68796 36.794 4.72591 36.665 4.79622L35.3185 5.52391L30.7035 0.818946C30.6164 0.729762 30.5125 0.659258 30.3981 0.611772C30.2837 0.564287 30.1612 0.540722 30.0377 0.542447ZM30.0506 2.81217L33.6142 6.44535L22.5729 12.4161C22.4318 11.9217 22.2574 11.4379 22.0509 10.968L30.0506 2.81217ZM11.9485 6.15404C17.0523 6.15404 21.1711 10.3532 21.1711 15.5566C21.1711 20.7619 17.0523 24.9592 11.9485 24.9592C6.84468 24.9592 2.72587 20.7619 2.72587 15.5566C2.72587 10.3532 6.84468 6.15404 11.9485 6.15404ZM36.7167 6.89665L41.2192 15.5566H23.0156C23.0156 15.1467 22.9898 14.7403 22.9473 14.3416L36.7167 6.89665ZM11.4265 8.03456V9.77573C10.993 9.82636 10.5691 9.94169 10.1685 10.118C9.79407 10.2872 9.47312 10.5035 9.20751 10.7667C8.94928 11.03 8.74638 11.3423 8.60251 11.6996C8.46601 12.0588 8.39592 12.4537 8.39592 12.8862C8.39592 13.3563 8.47708 13.7738 8.63571 14.1311C8.79803 14.4903 9.02859 14.808 9.32925 15.0826C9.63544 15.3571 10.0062 15.598 10.436 15.8029C10.8713 16.0042 11.3638 16.1791 11.9097 16.3314C12.3174 16.4686 12.6641 16.6135 12.95 16.762C13.2433 16.9106 13.4794 17.0685 13.6565 17.2434C13.8409 17.4183 13.9737 17.6044 14.0568 17.8056C14.1398 18.0145 14.1812 18.2382 14.1785 18.4637C14.1785 18.7458 14.1287 19.0092 14.0272 19.2405C13.9237 19.4679 13.7696 19.6674 13.5772 19.8234C13.3638 19.9934 13.1201 20.1199 12.8597 20.1957C12.2919 20.3582 11.6923 20.3668 11.1203 20.2203C10.8617 20.153 10.6207 20.0292 10.4138 19.8573C10.1911 19.6669 10.016 19.4252 9.90289 19.1521C9.76204 18.7978 9.69544 18.4173 9.70737 18.0351H7.90897C7.90897 18.6313 8.00119 19.1426 8.18565 19.5695C8.3701 19.9926 8.61357 20.3444 8.91976 20.6227C9.23333 20.9048 9.59486 21.1153 9.99696 21.262C10.4009 21.4124 10.8141 21.5102 11.2439 21.5572V23.0766H12.6678V21.5572C13.1788 21.5045 13.638 21.3993 14.0475 21.2413C14.4315 21.098 14.7856 20.8823 15.0915 20.6057C15.3774 20.3424 15.6006 20.0322 15.7574 19.673C15.916 19.3082 15.9917 18.9002 15.9917 18.447C15.9995 18.0261 15.9223 17.6079 15.7648 17.2188C15.6134 16.8614 15.3874 16.5419 15.1026 16.2825C14.7782 15.9927 14.4125 15.7549 14.018 15.5773C13.5383 15.3525 13.0418 15.1669 12.5332 15.0224C12.1551 14.9041 11.7853 14.7596 11.4265 14.59C11.1684 14.4604 10.9279 14.2972 10.7108 14.1047C10.5396 13.9538 10.4041 13.7655 10.3142 13.5538C10.2361 13.3325 10.1974 13.0989 10.1999 12.8637C10.1999 12.5892 10.2404 12.3371 10.3142 12.1115C10.3916 11.8869 10.5187 11.6835 10.6857 11.5171C10.8527 11.3508 11.055 11.226 11.2771 11.1524C11.5168 11.0621 11.7954 11.0206 12.1237 11.0206C12.4373 11.0206 12.7176 11.0772 12.963 11.2013C13.2043 11.3193 13.4152 11.4932 13.579 11.709C13.7432 11.9234 13.8649 12.1791 13.9461 12.4744C14.0346 12.7715 14.0789 13.0988 14.0789 13.4523H15.8699C15.8699 12.3804 15.6061 11.5341 15.0805 10.9173C14.564 10.2967 13.8262 9.91494 12.8726 9.78331V8.03456H11.4283H11.4265ZM22.8459 17.4371H43.3053C44.3438 17.4371 45.1498 18.2608 45.1498 19.3177V26.8397H35.005C33.7829 26.8427 32.6117 27.3388 31.7475 28.2198C30.8834 29.1008 30.3966 30.2951 30.3937 31.541C30.3937 34.1305 32.4669 36.2423 35.005 36.2423H45.1498V43.7644C45.1498 44.8231 44.3438 45.6449 43.3053 45.6449H8.25943C7.22096 45.6449 6.41491 44.8231 6.41491 43.7644V25.3127C8.09437 26.312 10.0039 26.839 11.9485 26.8397C17.4193 26.8397 21.9642 22.7628 22.8459 17.4371ZM23.0156 19.3177V21.1982H24.8601V19.3177H23.0156ZM26.7046 19.3177V21.1982H28.5491V19.3177H26.7046ZM30.3937 19.3177V21.1982H32.2382V19.3177H30.3937ZM34.0827 19.3177V21.1982H35.9272V19.3177H34.0827ZM37.7717 19.3177V21.1982H39.6163V19.3177H37.7717ZM41.4608 19.3177V21.1982H43.3053V19.3177H41.4608ZM41.4608 23.0787V24.9592H43.3053V23.0787H41.4608ZM8.25943 26.8397V28.7202H10.1039V26.8397H8.25943ZM35.005 28.7202H45.1498V34.3618H35.005C33.4556 34.3618 32.2382 33.1207 32.2382 31.541C32.2382 29.9614 33.4556 28.7202 35.005 28.7202ZM8.25943 30.6008V32.4813H10.1039V30.6008H8.25943ZM34.0827 30.6008V32.4813H35.9272V30.6008H34.0827ZM8.25943 34.3618V36.2423H10.1039V34.3618H8.25943ZM8.25943 38.1228V40.0033H10.1039V38.1228H8.25943ZM41.4608 38.1228V40.0033H43.3053V38.1228H41.4608ZM8.25943 41.8839V43.7644H10.1039V41.8839H8.25943ZM11.9485 41.8839V43.7644H13.793V41.8839H11.9485ZM15.6375 41.8839V43.7644H17.482V41.8839H15.6375ZM19.3265 41.8839V43.7644H21.1711V41.8839H19.3265ZM23.0156 41.8839V43.7644H24.8601V41.8839H23.0156ZM26.7046 41.8839V43.7644H28.5491V41.8839H26.7046ZM30.3937 41.8839V43.7644H32.2382V41.8839H30.3937ZM34.0827 41.8839V43.7644H35.9272V41.8839H34.0827ZM37.7717 41.8839V43.7644H39.6163V41.8839H37.7717ZM41.4608 41.8839V43.7644H43.3053V41.8839H41.4608Z" fill="#4F98FE"/>
</svg>
