<svg width="106" height="107" viewBox="0 0 106 107" fill="none" xmlns="http://www.w3.org/2000/svg">
<path id="Vector" d="M67.0217 0.255082C66.4708 0.262973 65.9446 0.4851 65.5546 0.87444L46.534 19.9013C44.2058 16.4445 41.0646 13.6124 37.3866 11.6544C33.7086 9.69645 29.6062 8.67256 25.44 8.67209C11.4141 8.67209 0 20.0924 0 34.1259C0 41.6347 3.29024 48.3798 8.48 53.0463V97.7603C8.48 102.427 12.296 106.245 16.96 106.245H97.52C102.184 106.245 106 102.427 106 97.7603V42.6105C106 37.9439 102.184 34.1259 97.52 34.1259L85.1222 10.7295C84.9395 10.3843 84.6651 10.0959 84.3292 9.89683C83.9932 9.69771 83.6089 9.59558 83.2185 9.60113C82.8824 9.60703 82.5525 9.69265 82.256 9.85126L79.1608 11.4929L68.5523 0.878842C68.3519 0.677649 68.1132 0.518599 67.8502 0.411475C67.5873 0.304351 67.3055 0.251192 67.0217 0.255082ZM67.0514 5.37541L75.243 13.5715L49.8624 27.041C49.5381 25.9258 49.1371 24.8343 48.6625 23.7744L67.0514 5.37541ZM25.44 12.9144C37.1721 12.9144 46.64 22.3874 46.64 34.1259C46.64 45.8685 37.1721 55.3373 25.44 55.3373C13.7079 55.3373 4.24 45.8685 4.24 34.1259C4.24 22.3874 13.7079 12.9144 25.44 12.9144ZM82.3747 14.5897L92.7246 34.1259H50.88C50.88 33.201 50.8206 32.2842 50.7231 31.3848L82.3747 14.5897ZM24.2401 17.1567V21.0846C23.2436 21.1989 22.2693 21.459 21.3484 21.8568C20.4877 22.2386 19.7499 22.7263 19.1394 23.3202C18.5458 23.9142 18.0794 24.6188 17.7486 25.4248C17.4349 26.2351 17.2738 27.1259 17.2738 28.1016C17.2738 29.1622 17.4603 30.1039 17.825 30.91C18.1981 31.7202 18.7281 32.4371 19.4192 33.0565C20.123 33.6759 20.9753 34.2191 21.9632 34.6815C22.9638 35.1354 24.0959 35.53 25.351 35.8736C26.288 36.1833 27.0851 36.51 27.7423 36.8451C28.4165 37.1803 28.9592 37.5366 29.3662 37.9311C29.7902 38.3256 30.0955 38.7454 30.2863 39.1993C30.4773 39.6707 30.5724 40.1754 30.5662 40.684C30.5662 41.3204 30.4517 41.9146 30.2185 42.4365C29.9805 42.9494 29.6263 43.3994 29.1839 43.7513C28.6933 44.135 28.1333 44.4202 27.5346 44.5913C26.2293 44.9579 24.8511 44.9771 23.5362 44.6467C22.9419 44.495 22.3878 44.2156 21.9123 43.8279C21.4003 43.3983 20.9977 42.853 20.7378 42.2371C20.414 41.4376 20.261 40.5793 20.2884 39.7172H16.1544C16.1544 41.062 16.3664 42.2155 16.7904 43.1785C17.2144 44.1331 17.7741 44.9266 18.4779 45.5545C19.1987 46.1908 20.0298 46.6658 20.9541 46.9967C21.8826 47.3361 22.8324 47.5566 23.8203 47.6627V51.0904H27.0936V47.6627C28.2681 47.5439 29.3238 47.3065 30.2651 46.9501C31.1478 46.6267 31.9618 46.1403 32.665 45.5162C33.3222 44.9222 33.8352 44.2224 34.1956 43.4121C34.5602 42.5891 34.7341 41.6686 34.7341 40.6462C34.7522 39.6968 34.5747 38.7535 34.2126 37.8757C33.8645 37.0692 33.3451 36.3486 32.6904 35.7633C31.9448 35.1096 31.1041 34.5732 30.1973 34.1725C29.0945 33.6654 27.9532 33.2468 26.7841 32.9208C25.9149 32.6537 25.065 32.3278 24.2401 31.9452C23.6469 31.6528 23.0939 31.2846 22.595 30.8504C22.2015 30.51 21.8898 30.0852 21.6834 29.6075C21.5038 29.1084 21.4147 28.5814 21.4205 28.0509C21.4205 27.4315 21.5138 26.8629 21.6834 26.3538C21.8612 25.8472 22.1533 25.3884 22.5372 25.0131C22.9211 24.6379 23.3863 24.3563 23.8966 24.1902C24.4478 23.9866 25.0881 23.893 25.8428 23.893C26.5636 23.893 27.2081 24.0205 27.772 24.3005C28.3267 24.5668 28.8117 24.9591 29.1882 25.446C29.5655 25.9297 29.8454 26.5065 30.0319 27.1726C30.2354 27.8429 30.3372 28.5811 30.3372 29.3787H34.4542C34.4542 26.9605 33.8479 25.0514 32.6395 23.6599C31.4523 22.26 29.7563 21.3987 27.5642 21.1017V17.1567H24.2443H24.2401ZM50.4899 38.3682H97.52C99.9071 38.3682 101.76 40.2263 101.76 42.6105V59.5796H78.44C75.6308 59.5864 72.9385 60.7055 70.9521 62.693C68.9657 64.6805 67.8467 67.3746 67.84 70.1854C67.84 76.027 72.6058 80.7911 78.44 80.7911H101.76V97.7603C101.76 100.149 99.9071 102.003 97.52 102.003H16.96C14.5729 102.003 12.72 100.149 12.72 97.7603V56.1348C16.5806 58.3892 20.97 59.578 25.44 59.5796C38.0158 59.5796 48.4632 50.3823 50.4899 38.3682ZM50.88 42.6105V46.8527H55.12V42.6105H50.88ZM59.36 42.6105V46.8527H63.6V42.6105H59.36ZM67.84 42.6105V46.8527H72.08V42.6105H67.84ZM76.32 42.6105V46.8527H80.56V42.6105H76.32ZM84.8 42.6105V46.8527H89.04V42.6105H84.8ZM93.28 42.6105V46.8527H97.52V42.6105H93.28ZM93.28 51.095V55.3373H97.52V51.095H93.28ZM16.96 59.5796V63.8219H21.2V59.5796H16.96ZM78.44 63.8219H101.76V76.5488H78.44C74.8784 76.5488 72.08 73.7489 72.08 70.1854C72.08 66.6218 74.8784 63.8219 78.44 63.8219ZM16.96 68.0642V72.3065H21.2V68.0642H16.96ZM76.32 68.0642V72.3065H80.56V68.0642H76.32ZM16.96 76.5488V80.7911H21.2V76.5488H16.96ZM16.96 85.0334V89.2757H21.2V85.0334H16.96ZM93.28 85.0334V89.2757H97.52V85.0334H93.28ZM16.96 93.518V97.7603H21.2V93.518H16.96ZM25.44 93.518V97.7603H29.68V93.518H25.44ZM33.92 93.518V97.7603H38.16V93.518H33.92ZM42.4 93.518V97.7603H46.64V93.518H42.4ZM50.88 93.518V97.7603H55.12V93.518H50.88ZM59.36 93.518V97.7603H63.6V93.518H59.36ZM67.84 93.518V97.7603H72.08V93.518H67.84ZM76.32 93.518V97.7603H80.56V93.518H76.32ZM84.8 93.518V97.7603H89.04V93.518H84.8ZM93.28 93.518V97.7603H97.52V93.518H93.28Z" fill="#AAAAAA"/>
</svg>
