<svg width="110" height="88" viewBox="0 0 110 88" fill="none" xmlns="http://www.w3.org/2000/svg">
<path d="M102.532 2H7.46783C6.01767 2 4.62691 2.65583 3.60149 3.82321C2.57607 4.99059 2 6.5739 2 8.22483V79.7752C2 81.4261 2.57607 83.0094 3.60149 84.1768C4.62691 85.3442 6.01767 86 7.46783 86H102.532C103.982 86 105.373 85.3442 106.399 84.1768C107.424 83.0094 108 81.4261 108 79.7752V8.22483C108 6.5739 107.424 4.99059 106.399 3.82321C105.373 2.65583 103.982 2 102.532 2Z" stroke="#CCCCCC" stroke-width="4" stroke-miterlimit="10" stroke-linecap="round" stroke-linejoin="round"/>
<path d="M2 25.6624H108" stroke="#CCCCCC" stroke-width="4" stroke-miterlimit="10" stroke-linecap="round" stroke-linejoin="round"/>
<path d="M93.1248 49.4756C93.1239 48.6426 92.9788 47.8179 92.6976 47.0488C92.4164 46.2797 92.0048 45.5813 91.4863 44.9936C90.9677 44.4058 90.3525 43.9402 89.6757 43.6235C88.9989 43.3068 88.2739 43.1451 87.5421 43.1477C86.8104 43.1451 86.0854 43.3068 85.4086 43.6235C84.7318 43.9402 84.1166 44.4058 83.598 44.9936C83.0795 45.5813 82.6678 46.2797 82.3867 47.0488C82.1055 47.8179 81.9603 48.6426 81.9595 49.4756C81.9606 51.1608 82.5492 52.7766 83.5959 53.9682C84.6426 55.1598 86.0619 55.8299 87.5421 55.8312" stroke="#CCCCCC" stroke-width="4" stroke-miterlimit="10" stroke-linecap="round" stroke-linejoin="round"/>
<path d="M81.9595 62.1866C81.9653 63.8676 82.5561 65.4775 83.6025 66.6635C84.6489 67.8496 86.0655 68.5152 87.5421 68.5145C89.0187 68.5152 90.4354 67.8496 91.4818 66.6635C92.5281 65.4775 93.119 63.8676 93.1248 62.1866C93.1236 60.5014 92.5351 58.8856 91.4884 57.694C90.4417 56.5024 89.0224 55.8324 87.5421 55.8311" stroke="#CCCCCC" stroke-width="4" stroke-miterlimit="10" stroke-linecap="round" stroke-linejoin="round"/>
<path d="M87.5422 68.5146V71.7327" stroke="#CCCCCC" stroke-width="4" stroke-miterlimit="10" stroke-linecap="round" stroke-linejoin="round"/>
<path d="M87.5422 39.9297V43.1477" stroke="#CCCCCC" stroke-width="4" stroke-miterlimit="10" stroke-linecap="round" stroke-linejoin="round"/>
<path d="M16.8755 40.8098H58.2817" stroke="#CCCCCC" stroke-width="4" stroke-miterlimit="10" stroke-linecap="round" stroke-linejoin="round"/>
<path d="M16.8755 55.4668H58.2817" stroke="#CCCCCC" stroke-width="4" stroke-miterlimit="10" stroke-linecap="round" stroke-linejoin="round"/>
<path d="M16.8755 70.1238H37.5786" stroke="#CCCCCC" stroke-width="4" stroke-miterlimit="10" stroke-linecap="round" stroke-linejoin="round"/>
</svg>
