<svg width="106" height="106" viewBox="0 0 106 106" fill="none" xmlns="http://www.w3.org/2000/svg">
<path d="M82.8125 69.5625H43.0625C40.9491 69.5625 38.5575 67.6976 38.0441 65.6438L24.6947 12.2496C23.4426 7.24112 18.4175 3.3125 13.25 3.3125H6.625C4.7965 3.3125 3.3125 4.79319 3.3125 6.625C3.3125 8.45681 4.7965 9.9375 6.625 9.9375H13.25C15.3634 9.9375 17.755 11.8024 18.2684 13.8562L31.6178 67.2504C32.8699 72.2589 37.895 76.1875 43.0625 76.1875H82.8125C84.641 76.1875 86.125 74.7068 86.125 72.875C86.125 71.0432 84.641 69.5625 82.8125 69.5625ZM43.0625 82.8125C37.5836 82.8125 33.125 87.2711 33.125 92.75C33.125 98.2289 37.5836 102.688 43.0625 102.688C48.5414 102.688 53 98.2289 53 92.75C53 87.2711 48.5414 82.8125 43.0625 82.8125ZM43.0625 96.0625C41.2373 96.0625 39.75 94.5785 39.75 92.75C39.75 90.9215 41.2373 89.4375 43.0625 89.4375C44.8877 89.4375 46.375 90.9215 46.375 92.75C46.375 94.5785 44.8877 96.0625 43.0625 96.0625ZM76.1875 82.8125C70.7086 82.8125 66.25 87.2711 66.25 92.75C66.25 98.2289 70.7086 102.688 76.1875 102.688C81.6664 102.688 86.125 98.2289 86.125 92.75C86.125 87.2711 81.6664 82.8125 76.1875 82.8125ZM76.1875 96.0625C74.3623 96.0625 72.875 94.5785 72.875 92.75C72.875 90.9215 74.3623 89.4375 76.1875 89.4375C78.0127 89.4375 79.5 90.9215 79.5 92.75C79.5 94.5785 78.0127 96.0625 76.1875 96.0625Z" fill="#AAAAAA"/>
<path d="M99.5009 19.7856C98.0235 17.7351 95.5656 16.5625 92.75 16.5625H72.875C71.0465 16.5625 69.5625 18.0432 69.5625 19.875C69.5625 21.7068 71.0465 23.1875 72.875 23.1875H92.75C93.3993 23.1875 93.916 23.3631 94.128 23.6579C94.34 23.9527 94.3433 24.4992 94.1379 25.1121L85.0783 52.2911C84.376 54.3979 81.7161 56.3125 79.5 56.3125H46.375C44.5465 56.3125 43.0625 57.7932 43.0625 59.625C43.0625 61.4568 44.5465 62.9375 46.375 62.9375H79.5C84.5549 62.9375 89.7654 59.1811 91.3621 54.3879L100.422 27.2089C101.313 24.5357 100.975 21.8294 99.5009 19.7856Z" fill="#AAAAAA"/>
<path d="M50.6581 30.7831C49.3629 32.0783 49.3629 34.1717 50.6581 35.4669L60.5956 45.4044C61.2415 46.0504 62.0895 46.375 62.9375 46.375C63.7855 46.375 64.6335 46.0504 65.2794 45.4044L75.2169 35.4669C76.5121 34.1717 76.5121 32.0783 75.2169 30.7831C73.9218 29.4879 71.8282 29.4879 70.5331 30.7831L66.25 35.0661V19.875C66.25 18.0432 64.766 16.5625 62.9375 16.5625C61.109 16.5625 59.625 18.0432 59.625 19.875V35.0661L55.3419 30.7831C54.0468 29.4879 51.9533 29.4879 50.6581 30.7831ZM36.4375 23.1875H53C54.8285 23.1875 56.3125 21.7068 56.3125 19.875C56.3125 18.0432 54.8285 16.5625 53 16.5625H36.4375C34.609 16.5625 33.125 18.0432 33.125 19.875C33.125 21.7068 34.609 23.1875 36.4375 23.1875Z" fill="#AAAAAA"/>
</svg>
