<svg width="53" height="54" viewBox="0 0 53 54" fill="none" xmlns="http://www.w3.org/2000/svg">
<path d="M41.4062 35.4375H21.5312C20.4746 35.4375 19.2787 34.4874 19.022 33.4412L12.3473 6.24038C11.7213 3.68887 9.20875 1.6875 6.625 1.6875H3.3125C2.39825 1.6875 1.65625 2.44181 1.65625 3.375C1.65625 4.30819 2.39825 5.0625 3.3125 5.0625H6.625C7.68169 5.0625 8.8775 6.01256 9.13422 7.05881L15.8089 34.2596C16.435 36.8111 18.9475 38.8125 21.5312 38.8125H41.4062C42.3205 38.8125 43.0625 38.0582 43.0625 37.125C43.0625 36.1918 42.3205 35.4375 41.4062 35.4375ZM21.5312 42.1875C18.7918 42.1875 16.5625 44.4589 16.5625 47.25C16.5625 50.0411 18.7918 52.3125 21.5312 52.3125C24.2707 52.3125 26.5 50.0411 26.5 47.25C26.5 44.4589 24.2707 42.1875 21.5312 42.1875ZM21.5312 48.9375C20.6187 48.9375 19.875 48.1815 19.875 47.25C19.875 46.3185 20.6187 45.5625 21.5312 45.5625C22.4438 45.5625 23.1875 46.3185 23.1875 47.25C23.1875 48.1815 22.4438 48.9375 21.5312 48.9375ZM38.0938 42.1875C35.3543 42.1875 33.125 44.4589 33.125 47.25C33.125 50.0411 35.3543 52.3125 38.0938 52.3125C40.8332 52.3125 43.0625 50.0411 43.0625 47.25C43.0625 44.4589 40.8332 42.1875 38.0938 42.1875ZM38.0938 48.9375C37.1812 48.9375 36.4375 48.1815 36.4375 47.25C36.4375 46.3185 37.1812 45.5625 38.0938 45.5625C39.0063 45.5625 39.75 46.3185 39.75 47.25C39.75 48.1815 39.0063 48.9375 38.0938 48.9375Z" fill="#E7439C"/>
<path d="M49.7504 10.0794C49.0117 9.03488 47.7828 8.4375 46.375 8.4375H36.4375C35.5232 8.4375 34.7812 9.19181 34.7812 10.125C34.7812 11.0582 35.5232 11.8125 36.4375 11.8125H46.375C46.6996 11.8125 46.958 11.9019 47.064 12.0521C47.17 12.2023 47.1717 12.4807 47.069 12.7929L42.5391 26.6389C42.188 27.7121 40.858 28.6875 39.75 28.6875H23.1875C22.2733 28.6875 21.5312 29.4418 21.5312 30.375C21.5312 31.3082 22.2733 32.0625 23.1875 32.0625H39.75C42.2774 32.0625 44.8827 30.1489 45.681 27.7071L50.2109 13.8611C50.6564 12.4993 50.4875 11.1206 49.7504 10.0794Z" fill="#E7439C"/>
<path d="M25.329 15.6819C24.6814 16.3418 24.6814 17.4082 25.329 18.0681L30.2978 23.1306C30.6207 23.4596 31.0448 23.625 31.4688 23.625C31.8927 23.625 32.3168 23.4596 32.6397 23.1306L37.6085 18.0681C38.2561 17.4082 38.2561 16.3418 37.6085 15.6819C36.9609 15.0221 35.9141 15.0221 35.2665 15.6819L33.125 17.8639V10.125C33.125 9.19181 32.383 8.4375 31.4688 8.4375C30.5545 8.4375 29.8125 9.19181 29.8125 10.125V17.8639L27.671 15.6819C27.0234 15.0221 25.9766 15.0221 25.329 15.6819ZM18.2188 11.8125H26.5C27.4143 11.8125 28.1562 11.0582 28.1562 10.125C28.1562 9.19181 27.4143 8.4375 26.5 8.4375H18.2188C17.3045 8.4375 16.5625 9.19181 16.5625 10.125C16.5625 11.0582 17.3045 11.8125 18.2188 11.8125Z" fill="#E7439C"/>
</svg>
