<svg width="47" height="48" viewBox="0 0 47 48" fill="none" xmlns="http://www.w3.org/2000/svg">
<g id="Group 492">
<path id="Vector" d="M46.1993 13.8421H43.8141V11.412C43.8141 10.9648 43.4587 10.6019 43.0191 10.6019H26.323C25.3681 10.6019 24.5214 11.041 23.9378 11.7214C23.3543 11.041 22.5075 10.6019 21.5527 10.6019H4.85661C4.41694 10.6019 4.06155 10.9648 4.06155 11.412V13.8421H1.6764C1.23674 13.8421 0.881348 14.205 0.881348 14.6522V43.8139C0.881348 44.261 1.23674 44.6239 1.6764 44.6239H27.9131V47.0541C27.9131 47.3351 28.0562 47.5952 28.2908 47.7434C28.5253 47.8917 28.8163 47.9038 29.0643 47.7791L30.2983 47.1496L31.533 47.7782C31.6451 47.8358 31.7667 47.8641 31.8884 47.8641C32.0339 47.8641 32.1786 47.8236 32.3058 47.7434C32.5403 47.5952 32.6834 47.3351 32.6834 47.0541V44.6239H46.1993C46.639 44.6239 46.9943 44.261 46.9943 43.8139V14.6522C46.9943 14.205 46.639 13.8421 46.1993 13.8421ZM42.224 39.7636H32.6834V12.222H42.224V39.7636ZM26.323 12.222H27.9131V39.7636H26.323C25.4461 39.7636 24.7329 39.037 24.7329 38.1435V13.8421C24.7329 12.9486 25.4461 12.222 26.323 12.222ZM5.65166 12.222H21.5527C22.4296 12.222 23.1428 12.9486 23.1428 13.8421V38.1435C23.1428 39.037 22.4296 39.7636 21.5527 39.7636H5.65166V12.222ZM2.47145 43.0038V15.4622H4.06155V40.5737C4.06155 41.0208 4.41694 41.3837 4.85661 41.3837H21.5527C22.5075 41.3837 23.3543 40.9447 23.9378 40.2642C24.5214 40.9447 25.3681 41.3837 26.323 41.3837H27.9131V43.0038H2.47145ZM31.0933 45.7434L30.6536 45.5198C30.4302 45.4056 30.1663 45.4056 29.9421 45.5198L29.5032 45.7434V12.222H31.0933V45.7434ZM45.4042 43.0038H32.6834V41.3837H43.0191C43.4587 41.3837 43.8141 41.0208 43.8141 40.5737V15.4622H45.4042V43.0038Z" fill="#7C4FFE"/>
<path id="Vector_2" d="M8.03684 17.0823H20.7577C21.1973 17.0823 21.5527 16.7194 21.5527 16.2722C21.5527 15.8251 21.1973 15.4622 20.7577 15.4622H8.03684C7.59718 15.4622 7.24179 15.8251 7.24179 16.2722C7.24179 16.7194 7.59718 17.0823 8.03684 17.0823ZM8.03684 21.9426H15.9874C16.427 21.9426 16.7824 21.5797 16.7824 21.1325C16.7824 20.6854 16.427 20.3225 15.9874 20.3225H8.03684C7.59718 20.3225 7.24179 20.6854 7.24179 21.1325C7.24179 21.5797 7.59718 21.9426 8.03684 21.9426ZM20.7577 20.3225H18.3725C17.9328 20.3225 17.5775 20.6854 17.5775 21.1325C17.5775 21.5797 17.9328 21.9426 18.3725 21.9426H20.7577C21.1973 21.9426 21.5527 21.5797 21.5527 21.1325C21.5527 20.6854 21.1973 20.3225 20.7577 20.3225ZM20.7577 30.0431H12.8072C12.3675 30.0431 12.0121 30.406 12.0121 30.8531C12.0121 31.3002 12.3675 31.6631 12.8072 31.6631H20.7577C21.1973 31.6631 21.5527 31.3002 21.5527 30.8531C21.5527 30.406 21.1973 30.0431 20.7577 30.0431ZM8.03684 31.6631H10.422C10.8617 31.6631 11.217 31.3002 11.217 30.8531C11.217 30.406 10.8617 30.0431 10.422 30.0431H8.03684C7.59718 30.0431 7.24179 30.406 7.24179 30.8531C7.24179 31.3002 7.59718 31.6631 8.03684 31.6631ZM8.03684 26.8029H20.7577C21.1973 26.8029 21.5527 26.44 21.5527 25.9928C21.5527 25.5457 21.1973 25.1828 20.7577 25.1828H8.03684C7.59718 25.1828 7.24179 25.5457 7.24179 25.9928C7.24179 26.44 7.59718 26.8029 8.03684 26.8029ZM8.03684 36.5234H20.7577C21.1973 36.5234 21.5527 36.1605 21.5527 35.7134C21.5527 35.2662 21.1973 34.9033 20.7577 34.9033H8.03684C7.59718 34.9033 7.24179 35.2662 7.24179 35.7134C7.24179 36.1605 7.59718 36.5234 8.03684 36.5234ZM7.24179 7.36173H39.0439C39.1886 7.36173 39.3293 7.32203 39.4533 7.24589L43.4286 4.81575C43.6671 4.66994 43.8142 4.40586 43.8142 4.12154C43.8142 3.83721 43.6671 3.57314 43.4286 3.42733L39.4533 0.997184C39.3293 0.92104 39.1886 0.881348 39.0439 0.881348H7.24179C5.48791 0.881348 4.06158 2.33457 4.06158 4.12154C4.06158 5.9085 5.48791 7.36173 7.24179 7.36173ZM41.4743 4.12154L38.8236 5.74163H10.422V2.50144H38.8236L41.4743 4.12154ZM7.24179 2.50144H8.83189V5.74163H7.24179C6.36485 5.74163 5.65169 5.01502 5.65169 4.12154C5.65169 3.22806 6.36485 2.50144 7.24179 2.50144Z" fill="#7C4FFE"/>
</g>
</svg>
