<svg width="106" height="106" viewBox="0 0 106 106" fill="none" xmlns="http://www.w3.org/2000/svg">
<g id="Group 492">
<path id="Vector" d="M104.172 29.2412H98.6891V23.7585C98.6891 22.7497 97.8721 21.9309 96.8615 21.9309H58.4824C56.2875 21.9309 54.3411 22.9215 52.9997 24.4566C51.6582 22.9215 49.7119 21.9309 47.517 21.9309H9.13788C8.12723 21.9309 7.3103 22.7497 7.3103 23.7585V29.2412H1.82758C0.816926 29.2412 0 30.06 0 31.0688V96.8615C0 97.8703 0.816926 98.6891 1.82758 98.6891H62.1376V104.172C62.1376 104.806 62.4665 105.393 63.0057 105.727C63.5448 106.062 64.2137 106.089 64.7839 105.807L67.6203 104.387L70.4585 105.806C70.7162 105.935 70.9958 105.999 71.2754 105.999C71.6099 105.999 71.9425 105.908 72.2349 105.727C72.7741 105.393 73.103 104.806 73.103 104.172V98.6891H104.172C105.182 98.6891 105.999 97.8703 105.999 96.8615V31.0688C105.999 30.06 105.182 29.2412 104.172 29.2412ZM95.0339 87.7236H73.103V25.5861H95.0339V87.7236ZM58.4824 25.5861H62.1376V87.7236H58.4824C56.4666 87.7236 54.8273 86.0843 54.8273 84.0685V29.2412C54.8273 27.2254 56.4666 25.5861 58.4824 25.5861ZM10.9655 25.5861H47.517C49.5328 25.5861 51.1721 27.2254 51.1721 29.2412V84.0685C51.1721 86.0843 49.5328 87.7236 47.517 87.7236H10.9655V25.5861ZM3.65515 95.0339V32.8964H7.3103V89.5512C7.3103 90.56 8.12723 91.3788 9.13788 91.3788H47.517C49.7119 91.3788 51.6582 90.3882 52.9997 88.8531C54.3411 90.3882 56.2875 91.3788 58.4824 91.3788H62.1376V95.0339H3.65515ZM69.4479 101.215L68.4372 100.71C67.9237 100.453 67.3169 100.453 66.8015 100.71L65.7927 101.215V25.5861H69.4479V101.215ZM102.344 95.0339H73.103V91.3788H96.8615C97.8721 91.3788 98.6891 90.56 98.6891 89.5512V32.8964H102.344V95.0339Z" fill="#AAAAAA"/>
<path id="Vector_2" d="M16.4482 36.5515H45.6894C46.7 36.5515 47.517 35.7328 47.517 34.7239C47.517 33.7151 46.7 32.8964 45.6894 32.8964H16.4482C15.4375 32.8964 14.6206 33.7151 14.6206 34.7239C14.6206 35.7328 15.4375 36.5515 16.4482 36.5515ZM16.4482 47.517H34.7239C35.7346 47.517 36.5515 46.6982 36.5515 45.6894C36.5515 44.6806 35.7346 43.8618 34.7239 43.8618H16.4482C15.4375 43.8618 14.6206 44.6806 14.6206 45.6894C14.6206 46.6982 15.4375 47.517 16.4482 47.517ZM45.6894 43.8618H40.2067C39.196 43.8618 38.3791 44.6806 38.3791 45.6894C38.3791 46.6982 39.196 47.517 40.2067 47.517H45.6894C46.7 47.517 47.517 46.6982 47.517 45.6894C47.517 44.6806 46.7 43.8618 45.6894 43.8618ZM45.6894 65.7927H27.4136C26.403 65.7927 25.5861 66.6115 25.5861 67.6203C25.5861 68.6291 26.403 69.4479 27.4136 69.4479H45.6894C46.7 69.4479 47.517 68.6291 47.517 67.6203C47.517 66.6115 46.7 65.7927 45.6894 65.7927ZM16.4482 69.4479H21.9309C22.9416 69.4479 23.7585 68.6291 23.7585 67.6203C23.7585 66.6115 22.9416 65.7927 21.9309 65.7927H16.4482C15.4375 65.7927 14.6206 66.6115 14.6206 67.6203C14.6206 68.6291 15.4375 69.4479 16.4482 69.4479ZM16.4482 58.4824H45.6894C46.7 58.4824 47.517 57.6637 47.517 56.6548C47.517 55.646 46.7 54.8273 45.6894 54.8273H16.4482C15.4375 54.8273 14.6206 55.646 14.6206 56.6548C14.6206 57.6637 15.4375 58.4824 16.4482 58.4824ZM16.4482 80.4133H45.6894C46.7 80.4133 47.517 79.5946 47.517 78.5857C47.517 77.5769 46.7 76.7582 45.6894 76.7582H16.4482C15.4375 76.7582 14.6206 77.5769 14.6206 78.5857C14.6206 79.5946 15.4375 80.4133 16.4482 80.4133ZM14.6206 14.6206H87.7236C88.0562 14.6206 88.3797 14.5311 88.6648 14.3593L97.8027 8.87653C98.351 8.54757 98.6891 7.95178 98.6891 7.3103C98.6891 6.66882 98.351 6.07303 97.8027 5.74407L88.6648 0.261343C88.3797 0.089551 88.0562 0 87.7236 0H14.6206C10.589 0 7.3103 3.27867 7.3103 7.3103C7.3103 11.3419 10.589 14.6206 14.6206 14.6206ZM93.3105 7.3103L87.2174 10.9655H21.9309V3.65515H87.2174L93.3105 7.3103ZM14.6206 3.65515H18.2758V10.9655H14.6206C12.6048 10.9655 10.9655 9.32612 10.9655 7.3103C10.9655 5.29449 12.6048 3.65515 14.6206 3.65515Z" fill="#AAAAAA"/>
</g>
</svg>
