<svg width="106" height="106" viewBox="0 0 106 106" fill="none" xmlns="http://www.w3.org/2000/svg">
<path id="Vector" fill-rule="evenodd" clip-rule="evenodd" d="M51.6751 0.0140946C40.4483 0.260353 29.5932 4.08395 20.6903 10.9282C-0.357412 27.074 -6.1796 56.3561 7.08499 79.3275C7.20332 79.5537 7.36618 79.7536 7.56377 79.9152C7.76137 80.0769 7.98962 80.1968 8.23478 80.268C8.47995 80.3391 8.73697 80.3599 8.99039 80.3291C9.2438 80.2983 9.48837 80.2166 9.70938 80.0888C9.93039 79.9611 10.1233 79.7899 10.2764 79.5857C10.4296 79.3815 10.5398 79.1484 10.6006 78.9004C10.6613 78.6525 10.6713 78.3948 10.6298 78.1429C10.5884 77.891 10.4964 77.6501 10.3595 77.4346C4.39987 67.1189 2.39568 54.9876 4.72067 43.3031C7.04567 31.6186 13.5411 21.1786 22.9957 13.9302C31.7898 7.17643 42.6123 3.60092 53.6989 3.78654C64.7855 3.97216 75.4823 7.90796 84.0454 14.9523H81.369C80.867 14.9523 80.3855 15.1517 80.0306 15.5067C79.6756 15.8617 79.4762 16.3431 79.4762 16.8451C79.4762 17.3471 79.6756 17.8286 80.0306 18.1836C80.3855 18.5385 80.867 18.738 81.369 18.738H88.8606C89.1314 18.7517 89.4021 18.7072 89.6542 18.6072C89.9063 18.5073 90.1339 18.3544 90.3218 18.1588C90.3641 18.119 90.4045 18.0773 90.4429 18.0338C90.5648 17.8795 90.6619 17.707 90.7306 17.5228C90.752 17.4694 90.771 17.4151 90.7874 17.36C90.7875 17.3549 90.7875 17.3499 90.7874 17.3448C90.8027 17.2887 90.8153 17.2318 90.8253 17.1745C90.845 17.0658 90.8551 16.9556 90.8556 16.8451V9.25489C90.8597 9.00121 90.8127 8.7493 90.7175 8.51413C90.6223 8.27896 90.4808 8.06533 90.3014 7.88593C90.122 7.70653 89.9084 7.56502 89.6732 7.46983C89.4381 7.37463 89.1862 7.32768 88.9325 7.33178C88.6839 7.33572 88.4386 7.3886 88.2104 7.48738C87.9823 7.58617 87.7759 7.72893 87.6029 7.90752C87.4299 8.0861 87.2939 8.29701 87.2024 8.5282C87.111 8.75938 87.066 9.00631 87.07 9.25489V12.5598C77.2087 4.1799 64.6124 -0.284829 51.6751 0.0140946ZM53 21.9558C44.0282 21.9558 36.741 29.2091 36.741 38.1584V42.7769H30.4267C29.9247 42.7769 29.4433 42.9763 29.0883 43.3313C28.7334 43.6863 28.534 44.1677 28.534 44.6697V82.1478C28.534 82.6498 28.7334 83.1312 29.0883 83.4862C29.4433 83.8412 29.9247 84.0406 30.4267 84.0406H75.5733C76.0753 84.0406 76.5567 83.8412 76.9117 83.4862C77.2666 83.1312 77.4661 82.6498 77.4661 82.1478V44.6697C77.4661 44.1677 77.2666 43.6863 76.9117 43.3313C76.5567 42.9763 76.0753 42.7769 75.5733 42.7769H69.259V38.1584C69.259 29.2091 61.9718 21.9558 53 21.9558ZM97.2153 25.6582C96.8783 25.6623 96.5484 25.7563 96.2599 25.9305C95.9714 26.1048 95.7346 26.3529 95.574 26.6493C95.4135 26.9457 95.335 27.2796 95.3467 27.6165C95.3584 27.9533 95.4598 28.281 95.6405 28.5655C101.6 38.8813 103.604 51.0126 101.279 62.6971C98.9543 74.3816 92.4589 84.8215 83.0043 92.07C74.2106 98.8212 63.3897 102.395 52.3049 102.21C41.2202 102.024 30.525 98.0897 21.9622 91.0479H24.5478C25.0498 91.0479 25.5312 90.8484 25.8862 90.4935C26.2411 90.1385 26.4405 89.657 26.4405 89.155C26.4405 88.653 26.2411 88.1716 25.8862 87.8166C25.5312 87.4616 25.0498 87.2622 24.5478 87.2622H17.2757C17.0457 87.2325 16.8121 87.2453 16.5867 87.3001C16.1592 87.3873 15.775 87.6196 15.499 87.9577C15.2231 88.2957 15.0724 88.7187 15.0725 89.155V96.7453C15.0725 97.2473 15.2719 97.7287 15.6269 98.0837C15.9819 98.4387 16.4633 98.6381 16.9653 98.6381C17.4673 98.6381 17.9487 98.4387 18.3037 98.0837C18.6587 97.7287 18.8581 97.2473 18.8581 96.7453V93.3723C27.5086 100.752 38.3112 105.14 49.6574 105.884C62.4607 106.734 75.1353 102.891 85.3097 95.072C106.357 78.9262 112.18 49.6441 98.915 26.6727C98.7526 26.3626 98.5075 26.1036 98.2067 25.9245C97.906 25.7454 97.5653 25.6532 97.2153 25.6582ZM53 25.7452C54.6369 25.7322 56.2601 26.0441 57.7756 26.6628C59.2911 27.2814 60.6688 28.1947 61.8289 29.3495C62.9891 30.5044 63.9086 31.878 64.5341 33.3907C65.1597 34.9034 65.479 36.5252 65.4734 38.1622V42.7807H40.5266V38.1622C40.5266 31.2496 46.0535 25.7452 53 25.7452ZM32.3195 46.5664H73.6805V80.2587H32.3195V46.5664ZM53 53.354C49.4908 53.354 46.5911 56.2198 46.5911 59.7253C46.5911 62.5721 48.5103 64.9685 51.1072 65.7824V75.4244H54.8928V65.7824C56.1917 65.384 57.3298 64.582 58.1419 63.4928C58.954 62.4036 59.3978 61.0839 59.409 59.7253C59.409 56.2198 56.5092 53.354 53 53.354ZM53 57.1397C54.4764 57.1397 55.6234 58.2792 55.6234 59.7253C55.6249 60.069 55.5579 60.4096 55.4263 60.7271C55.2947 61.0446 55.1011 61.3327 54.8568 61.5745C54.6126 61.8163 54.3225 62.007 54.0037 62.1354C53.6849 62.2638 53.3437 62.3273 53 62.3223C52.6563 62.3273 52.3151 62.2638 51.9963 62.1354C51.6775 62.007 51.3874 61.8163 51.1432 61.5745C50.8989 61.3327 50.7053 61.0446 50.5737 60.7271C50.4421 60.4096 50.3751 60.069 50.3766 59.7253C50.3766 58.2792 51.5236 57.1397 53 57.1397Z" fill="#AAAAAA"/>
</svg>
