<svg width="48" height="41" viewBox="0 0 48 41" fill="none" xmlns="http://www.w3.org/2000/svg">
<g id="Group 493">
<path id="Vector" d="M44.6157 0.946289H3.26001C2.62915 0.946289 2.02413 1.24518 1.57804 1.77721C1.13196 2.30923 0.881348 3.03082 0.881348 3.78322V36.3918C0.881348 37.1442 1.13196 37.8658 1.57804 38.3979C2.02413 38.9299 2.62915 39.2288 3.26001 39.2288H44.6157C45.2465 39.2288 45.8516 38.9299 46.2976 38.3979C46.7437 37.8658 46.9943 37.1442 46.9943 36.3918V3.78322C46.9943 3.03082 46.7437 2.30923 46.2976 1.77721C45.8516 1.24518 45.2465 0.946289 44.6157 0.946289Z" stroke="#11C594" stroke-width="1.74011" stroke-miterlimit="10" stroke-linecap="round" stroke-linejoin="round"/>
<path id="Vector_2" d="M0.881348 11.7302H46.9943" stroke="#11C594" stroke-width="1.74011" stroke-miterlimit="10" stroke-linecap="round" stroke-linejoin="round"/>
<g id="Group">
<path id="Vector_3" d="M40.5232 22.583C40.5228 22.2034 40.4596 21.8275 40.3373 21.477C40.215 21.1265 40.0359 20.8082 39.8104 20.5403C39.5848 20.2725 39.3171 20.0603 39.0227 19.9159C38.7283 19.7716 38.4129 19.6979 38.0945 19.6991C37.7762 19.6979 37.4608 19.7716 37.1664 19.9159C36.872 20.0603 36.6043 20.2725 36.3787 20.5403C36.1532 20.8082 35.9741 21.1265 35.8518 21.477C35.7295 21.8275 35.6663 22.2034 35.6659 22.583C35.6664 23.351 35.9225 24.0874 36.3778 24.6305C36.8332 25.1736 37.4506 25.4789 38.0945 25.4795" stroke="#11C594" stroke-width="1.74011" stroke-miterlimit="10" stroke-linecap="round" stroke-linejoin="round"/>
<path id="Vector_4" d="M35.6659 28.376C35.6685 29.1421 35.9255 29.8758 36.3807 30.4163C36.8359 30.9569 37.4522 31.2602 38.0945 31.2599C38.7369 31.2602 39.3532 30.9569 39.8084 30.4163C40.2636 29.8758 40.5206 29.1421 40.5232 28.376C40.5227 27.608 40.2666 26.8716 39.8113 26.3285C39.3559 25.7855 38.7385 25.4801 38.0945 25.4795" stroke="#11C594" stroke-width="1.74011" stroke-miterlimit="10" stroke-linecap="round" stroke-linejoin="round"/>
<path id="Vector_5" d="M38.0945 31.2599V32.7265" stroke="#11C594" stroke-width="1.74011" stroke-miterlimit="10" stroke-linecap="round" stroke-linejoin="round"/>
<path id="Vector_6" d="M38.0946 18.2327V19.6993" stroke="#11C594" stroke-width="1.74011" stroke-miterlimit="10" stroke-linecap="round" stroke-linejoin="round"/>
</g>
<g id="Group_2">
<path id="Vector_7" d="M7.35257 18.6337H25.3655" stroke="#11C594" stroke-width="1.74011" stroke-miterlimit="10" stroke-linecap="round" stroke-linejoin="round"/>
<path id="Vector_8" d="M7.35257 25.3136H25.3655" stroke="#11C594" stroke-width="1.74011" stroke-miterlimit="10" stroke-linecap="round" stroke-linejoin="round"/>
<path id="Vector_9" d="M7.35257 31.9935H16.359" stroke="#11C594" stroke-width="1.74011" stroke-miterlimit="10" stroke-linecap="round" stroke-linejoin="round"/>
</g>
</g>
</svg>
