<svg width="106" height="106" viewBox="0 0 106 106" fill="none" xmlns="http://www.w3.org/2000/svg">
<g id="Sound">
<path id="Vector" d="M54.6562 99.375H50.774C48.1571 99.375 45.5999 98.315 43.7449 96.4666L27.7521 80.4739C27.1324 79.8522 26.2913 79.5019 25.4135 79.5H14.9062C9.42737 79.5 4.96875 75.0414 4.96875 69.5625V36.4375C4.96875 30.9586 9.42737 26.5 14.9062 26.5H25.4135C26.2921 26.4987 27.1347 26.1512 27.7588 25.5328L43.7515 9.54C45.5999 7.685 48.1637 6.625 50.774 6.625H54.6562C60.1351 6.625 64.5938 11.0836 64.5938 16.5625V89.4375C64.5938 94.9164 60.1351 99.375 54.6562 99.375ZM14.9062 33.125C14.0277 33.125 13.1852 33.474 12.564 34.0952C11.9427 34.7164 11.5938 35.559 11.5938 36.4375V69.5625C11.5938 71.3844 13.0844 72.875 14.9062 72.875H25.4135C28.0304 72.875 30.5876 73.935 32.4426 75.7834L48.4354 91.7761C49.0551 92.3978 49.8962 92.7481 50.774 92.75H54.6562C56.4781 92.75 57.9688 91.2594 57.9688 89.4375V16.5625C57.9688 15.684 57.6198 14.8414 56.9985 14.2202C56.3773 13.599 55.5348 13.25 54.6562 13.25H50.774C49.8972 13.2502 49.0562 13.598 48.4354 14.2172L32.436 30.2166C30.569 32.0723 28.0458 33.1172 25.4135 33.125H14.9062ZM74.5312 70.8809C73.8656 70.8782 73.2161 70.6754 72.6672 70.2988C72.1183 69.9222 71.6952 69.3893 71.4531 68.7692C71.2109 68.1492 71.1608 67.4706 71.3092 66.8217C71.4576 66.1728 71.7977 65.5835 72.2854 65.1304C73.9798 63.5957 75.3341 61.7232 76.2609 59.6334C77.1877 57.5436 77.6665 55.2828 77.6665 52.9967C77.6665 50.7106 77.1877 48.4498 76.2609 46.36C75.3341 44.2702 73.9798 42.3976 72.2854 40.863C71.6388 40.2674 71.2553 39.4393 71.2192 38.5609C71.1832 37.6825 71.4976 36.8257 72.0932 36.1791C72.6889 35.5325 73.517 35.149 74.3954 35.113C75.2738 35.077 76.1305 35.3914 76.7771 35.987C81.62 40.4589 84.2965 46.5009 84.2965 53C84.2965 59.4991 81.6266 65.5411 76.7771 70.0064C76.1645 70.569 75.363 70.8811 74.5312 70.8809Z" fill="#AAAAAA"/>
<path id="Vector_2" d="M74.5312 86.5424C73.7719 86.5426 73.0356 86.282 72.4455 85.8041C71.8554 85.3262 71.4474 84.6601 71.2899 83.9173C71.1323 83.1745 71.2347 82.4001 71.58 81.7238C71.9252 81.0475 72.4923 80.5103 73.1863 80.2023C83.9586 75.4124 90.9215 64.7329 90.9215 53C90.9215 41.2672 83.9586 30.5877 73.1863 25.7978C72.7888 25.6212 72.4298 25.368 72.1301 25.0527C71.8304 24.7373 71.5957 24.3661 71.4394 23.96C71.2831 23.554 71.2084 23.1212 71.2194 22.6863C71.2304 22.2514 71.327 21.8229 71.5036 21.4253C71.6802 21.0277 71.9334 20.6688 72.2487 20.369C72.564 20.0693 72.9353 19.8346 73.3413 19.6783C73.7474 19.5221 74.1802 19.4473 74.6151 19.4583C75.05 19.4694 75.4785 19.5659 75.8761 19.7425C89.0333 25.5924 97.5465 38.6503 97.5465 53C97.5465 67.3498 89.04 80.4077 75.8761 86.2642C75.452 86.4493 74.994 86.544 74.5312 86.5424Z" fill="#AAAAAA"/>
</g>
</svg>
