<svg width="24" height="24" viewBox="0 0 24 24" fill="none" xmlns="http://www.w3.org/2000/svg">
<g id="logos:tiktok-icon" clip-path="url(#clip0_1244_1335)">
<path id="Vector" d="M17.7862 8.64175C19.5373 9.74616 21.6825 10.396 23.9993 10.396V6.46247C23.5608 6.46255 23.1235 6.42216 22.6945 6.34197V9.43822C20.3778 9.43822 18.2329 8.78848 16.4815 7.68415V15.7114C16.4815 19.7271 12.7919 22.9822 8.24088 22.9822C6.54279 22.9822 4.96441 22.5292 3.65332 21.7524C5.14976 23.1024 7.23663 23.9398 9.54532 23.9398C14.0967 23.9398 17.7864 20.6848 17.7864 16.6689V8.64175H17.7862ZM19.3959 4.67331C18.501 3.81071 17.9134 2.69596 17.7862 1.46351V0.957611H16.5498C16.861 2.52398 17.9227 3.86219 19.3959 4.67331ZM6.53182 18.6709C6.03184 18.0926 5.76157 17.3849 5.76279 16.6574C5.76279 14.8208 7.45038 13.3317 9.53248 13.3317C9.92043 13.3315 10.3061 13.3841 10.6759 13.4875V9.46602C10.2438 9.4138 9.80763 9.39154 9.37169 9.39974V12.5298C9.00169 12.4263 8.61581 12.3738 8.22766 12.3741C6.14566 12.3741 4.45816 13.8631 4.45816 15.6999C4.45816 16.9987 5.30163 18.1232 6.53182 18.6709Z" fill="#FF004F"/>
<path id="Vector_2" d="M16.4815 7.68407C18.233 8.7884 20.3778 9.43814 22.6945 9.43814V6.34189C21.4013 6.09882 20.2565 5.50263 19.3958 4.67331C17.9225 3.86211 16.861 2.5239 16.5498 0.957611H13.302V16.6688C13.2946 18.5004 11.6099 19.9834 9.53228 19.9834C8.30809 19.9834 7.22041 19.4686 6.53163 18.6709C5.30163 18.1232 4.45806 16.9986 4.45806 15.7C4.45806 13.8633 6.14556 12.3742 8.22756 12.3742C8.62647 12.3742 9.01094 12.4289 9.37159 12.5299V9.39982C4.90047 9.48134 1.30469 12.7046 1.30469 16.6688C1.30469 18.6478 2.20009 20.4417 3.65341 21.7525C4.9645 22.5292 6.54278 22.9823 8.24097 22.9823C12.7921 22.9823 16.4816 19.727 16.4816 15.7114V7.68415L16.4815 7.68407Z" fill="black"/>
<path id="Vector_3" d="M22.6945 6.34179V5.50477C21.5284 5.50633 20.3852 5.21819 19.3958 4.6733C20.2717 5.51927 21.4249 6.10265 22.6945 6.34196V6.34179ZM16.5497 0.957517C16.52 0.807857 16.4973 0.657195 16.4814 0.505903V0H11.997V15.7113C11.9899 17.5428 10.3052 19.0258 8.2275 19.0258C7.63849 19.0266 7.05754 18.905 6.53156 18.671C7.22034 19.4686 8.30803 19.9833 9.53222 19.9833C11.6097 19.9833 13.2946 18.5004 13.3019 16.6688V0.9576H16.5497V0.957517ZM9.37181 9.39972V8.5085C8.99709 8.46328 8.6193 8.44066 8.24109 8.4408C3.68953 8.4408 0 11.696 0 15.7113C0 18.2287 1.45003 20.4473 3.65353 21.7524C2.20022 20.4416 1.30481 18.6476 1.30481 16.6687C1.30481 12.7046 4.9005 9.48124 9.37181 9.39972Z" fill="#00F2EA"/>
</g>
<defs>
<clipPath id="clip0_1244_1335">
<rect width="24" height="24" fill="white"/>
</clipPath>
</defs>
</svg>
